<svg width="44" height="43" viewBox="0 0 44 43" fill="none" xmlns="http://www.w3.org/2000/svg">
<rect width="44" height="43" fill="#4ACD9A"/>
<path d="M33.5827 4H11.4165C7.87848 4 5 6.87848 5 10.4165V32.5827C5 36.1207 7.87848 39 11.4165 39H33.5827C37.1207 39 40 36.1215 40 32.5827V10.4165C40 6.87848 37.1215 4 33.5827 4ZM22.4996 33.0218C16.1469 33.0218 10.9782 27.8531 10.9782 21.4996C10.9782 15.1469 16.1469 9.9782 22.4996 9.9782C28.8531 9.9782 34.0218 15.1469 34.0218 21.4996C34.0218 27.8523 28.8523 33.0218 22.4996 33.0218ZM34.3922 12.3604C32.8883 12.3604 31.6653 11.1374 31.6653 9.63434C31.6653 8.13129 32.8883 6.90831 34.3922 6.90831C35.8952 6.90831 37.1182 8.13129 37.1182 9.63434C37.1182 11.1374 35.8952 12.3604 34.3922 12.3604Z" fill="white"/>
<path d="M22.5004 15C18.9175 15 16 17.9159 16 21.4988C16 25.0833 18.9175 28 22.5004 28C26.0849 28 29 25.0833 29 21.4988C29 17.9167 26.0841 15 22.5004 15Z" fill="white"/>
</svg>
