<svg width="44" height="44" viewBox="0 0 44 44" fill="none" xmlns="http://www.w3.org/2000/svg">
<rect x="4" y="4" width="36" height="36" fill="white"/>
<path d="M42.5461 0C41.5461 1.77738e-08 2.04602 1.77714e-08 2.04602 1.77714e-08C-0.102178 1.77714e-08 0.000788117 -8.58307e-06 0.000788117 3.88969L0.000796462 43C0.000796462 45.1483 1.74229 43 3.89049 43H39.111C41.2593 43 43.0008 45.1483 43.0008 43V3.88969C43.0008 -8.10623e-06 43.5461 -1.7769e-08 42.5461 0ZM13.3068 37.129C13.3068 37.7542 12.8 38.261 12.1749 38.261H7.35638C6.73119 38.261 6.22442 37.7542 6.22442 37.129V16.9302C6.22442 16.305 6.73119 15.7982 7.35638 15.7982H12.1749C12.8 15.7982 13.3068 16.305 13.3068 16.9302V37.129ZM9.76561 13.8942C7.23751 13.8942 5.18803 11.8447 5.18803 9.31658C5.18803 6.78848 7.23751 4.739 9.76561 4.739C12.2937 4.739 14.3432 6.78848 14.3432 9.31658C14.3432 11.8447 12.2938 13.8942 9.76561 13.8942ZM38.488 37.2202C38.488 37.795 38.022 38.261 37.4473 38.261H32.2767C31.7019 38.261 31.2359 37.795 31.2359 37.2202V27.7458C31.2359 26.3324 31.6505 21.5523 27.5423 21.5523C24.3557 21.5523 23.7093 24.8242 23.5795 26.2925V37.2202C23.5795 37.795 23.1136 38.261 22.5388 38.261H17.5379C16.9632 38.261 16.4971 37.795 16.4971 37.2202V16.839C16.4971 16.2642 16.9632 15.7982 17.5379 15.7982H22.5388C23.1135 15.7982 23.5795 16.2642 23.5795 16.839C23.5795 17.3667 24.3216 17.6124 24.7093 17.2544C25.8725 16.1806 27.5417 15.4593 30.256 15.4593C38.5354 15.4593 38.488 23.1943 38.488 27.4443V37.2202Z" fill="#4ACD9A"/>
</svg>
