<svg width="45" height="44" viewBox="0 0 45 44" fill="none" xmlns="http://www.w3.org/2000/svg">
<rect x="1" width="43" height="43" fill="white"/>
<path d="M43.5 0C42.5 1.77738e-08 3 1.77714e-08 3 1.77714e-08C3 1.77714e-08 3 1.77714e-08 3 1.77714e-08C0.851801 1.77714e-08 0.954768 -8.58307e-06 0.954768 3.88969L0.954776 43C0.954776 45.1483 2.69627 43 4.84447 43H40.065C42.2133 43 43.9548 45.1483 43.9548 43V3.88969C43.9548 -8.10623e-06 44.5 -1.7769e-08 43.5 0ZM14.2608 37.129C14.2608 37.7542 13.754 38.261 13.1288 38.261H8.31036C7.68517 38.261 7.1784 37.7542 7.1784 37.129V16.9302C7.1784 16.305 7.68517 15.7982 8.31036 15.7982H13.1288C13.754 15.7982 14.2608 16.305 14.2608 16.9302V37.129ZM10.7196 13.8942C8.19149 13.8942 6.14201 11.8447 6.14201 9.31658C6.14201 6.78848 8.19149 4.739 10.7196 4.739C13.2477 4.739 15.2972 6.78848 15.2972 9.31658C15.2972 11.8447 13.2478 13.8942 10.7196 13.8942ZM39.442 37.2202C39.442 37.795 38.976 38.261 38.4012 38.261H33.2307C32.6559 38.261 32.1899 37.795 32.1899 37.2202V27.7458C32.1899 26.3324 32.6045 21.5523 28.4963 21.5523C25.3097 21.5523 24.6633 24.8242 24.5335 26.2925V37.2202C24.5335 37.795 24.0676 38.261 23.4927 38.261H18.4919C17.9171 38.261 17.4511 37.795 17.4511 37.2202V16.839C17.4511 16.2642 17.9171 15.7982 18.4919 15.7982H23.4927C24.0675 15.7982 24.5335 16.2642 24.5335 16.839V16.839C24.5335 17.3667 25.2755 17.6124 25.6633 17.2544C26.8264 16.1806 28.4957 15.4593 31.21 15.4593C39.4894 15.4593 39.442 23.1943 39.442 27.4443V37.2202Z" fill="#4ACD9A"/>
</svg>
