<svg width="55" height="59" viewBox="0 0 55 59" fill="none" xmlns="http://www.w3.org/2000/svg">
<path d="M55 0.000488281H1.49012e-05C-2.74768 0.000488281 -1.63317e-05 2.38999 -1.63317e-05 5.33752L-5.60284e-06 59.0005C-5.60284e-06 61.9482 2.22748 59.0005 4.97518 59.0005H50.0246C52.7725 59.0005 55 61.9482 55 59.0005V5.33752C55 2.38999 57.7477 0.000488281 55 0.000488281ZM17.0193 50.945C17.0193 51.8028 16.3711 52.4981 15.5715 52.4981H9.40829C8.60864 52.4981 7.96044 51.8028 7.96044 50.945V23.2303C7.96044 22.3725 8.60864 21.6771 9.40829 21.6771H15.5715C16.3711 21.6771 17.0193 22.3725 17.0193 23.2303V50.945ZM12.4899 19.0646C9.25625 19.0646 6.63483 16.2525 6.63483 12.7837C6.63483 9.31492 9.25625 6.50284 12.4899 6.50284C15.7235 6.50284 18.3449 9.31492 18.3449 12.7837C18.3449 16.2525 15.7236 19.0646 12.4899 19.0646ZM49.2279 51.0701C49.2279 51.8587 48.6318 52.4981 47.8966 52.4981H41.2831C40.5479 52.4981 39.9519 51.8587 39.9519 51.0701V38.0703C39.9519 36.131 40.4821 29.5723 35.2275 29.5723C31.1516 29.5723 30.3248 34.0616 30.1588 36.0762V51.0701C30.1588 51.8587 29.5629 52.4981 28.8276 52.4981H22.4312C21.696 52.4981 21.1 51.8587 21.1 51.0701V23.1052C21.1 22.3165 21.696 21.6771 22.4312 21.6771H28.8276C29.5628 21.6771 30.1588 22.3165 30.1588 23.1052V23.1052C30.1588 23.7992 31.1544 24.1128 31.6515 23.6284C33.1371 22.1809 35.2636 21.2121 38.6985 21.2121C49.2885 21.2121 49.2279 31.8253 49.2279 37.6567V51.0701Z" fill="white"/>
</svg>
