<svg width="66" height="64" viewBox="0 0 66 64" fill="none" xmlns="http://www.w3.org/2000/svg">
<g clip-path="url(#clip0)">
<path d="M53.2292 25.1688H18.8235" stroke="white" stroke-width="4" stroke-miterlimit="10"/>
<path d="M36 24L36 51.0007" stroke="white" stroke-width="4" stroke-miterlimit="10"/>
<path d="M53.9106 49H-4" stroke="white" stroke-width="4" stroke-miterlimit="10"/>
<path d="M32.1315 24.1159H36.9814V37.9079C35.2301 39.3561 33.1924 40.4676 30.8685 41.2422C28.5446 42.0168 26.1196 42.4042 23.5936 42.4042C20.0235 42.4042 16.8071 41.6295 13.9443 40.0802C11.0815 38.4973 8.82495 36.3418 7.17463 33.6137C5.55799 30.8519 4.74967 27.7534 4.74967 24.318C4.74967 20.8826 5.55799 17.7841 7.17463 15.0223C8.82495 12.2606 11.0815 10.105 13.9443 8.55576C16.8408 7.00648 20.0909 6.23184 23.6947 6.23184C26.5238 6.23184 29.0835 6.70336 31.3737 7.6464C33.6976 8.55576 35.6679 9.90296 37.2845 11.688L34.1523 14.8202C31.3232 12.0922 27.9047 10.7281 23.8967 10.7281C21.2023 10.7281 18.7774 11.3175 16.6219 12.4963C14.5 13.6414 12.8329 15.2581 11.6204 17.3462C10.4079 19.4007 9.80167 21.7246 9.80167 24.318C9.80167 26.8777 10.4079 29.2016 11.6204 31.2898C12.8329 33.3442 14.5 34.9609 16.6219 36.1397C18.7774 37.3185 21.1855 37.9079 23.8462 37.9079C27.0121 37.9079 29.7739 37.1501 32.1315 35.6345V24.1159Z" fill="white"/>
</g>
<defs>
<clipPath id="clip0">
<rect width="66" height="64" fill="white"/>
</clipPath>
</defs>
</svg>
